<?xml version="1.0" encoding="utf-8"?>
<!-- Generator: Adobe Illustrator 26.5.0, SVG Export Plug-In . SVG Version: 6.00 Build 0)  -->
<svg version="1.1" id="Layer_1" xmlns="http://www.w3.org/2000/svg" xmlns:xlink="http://www.w3.org/1999/xlink" x="0px" y="0px"
	 viewBox="0 0 512 512" style="enable-background:new 0 0 512 512;" xml:space="preserve">
<style type="text/css">
	.st0{fill:#B7D4E2;}
	.st1{fill:#99BAC6;}
	.st2{fill:#668FA3;}
	.st3{fill:#4C7889;}
	.st4{fill:#FFFFFF;}
	.st5{fill:#D4EFFF;}
</style>
<g>
	<path class="st0" d="M360.7,310.8v41.7c0,4.1-3.4,7.5-7.5,7.5h-19.4c-1.5,8.1-3.6,16-6.4,23.8l16.8,9.7c1.7,1,3,2.6,3.5,4.5
		c0.5,1.9,0.2,4-0.8,5.7l-20.9,36.1c-2.1,3.6-6.7,4.8-10.2,2.8l-16.9-9.7c-5.3,6.2-11.1,12.1-17.4,17.4l9.7,16.8
		c1,1.7,1.3,3.8,0.8,5.7c-0.5,1.9-1.8,3.6-3.5,4.5l-36.1,20.9c-3.6,2.1-8.2,0.8-10.2-2.8l-9.7-16.8c-7.7,2.8-15.7,4.9-23.8,6.4v19.4
		c0,4.1-3.4,7.5-7.5,7.5h-41.7c-4.1,0-7.5-3.4-7.5-7.5v-19.4c-8.1-1.5-16.1-3.6-23.8-6.4l-9.7,16.8c-2.1,3.6-6.7,4.8-10.2,2.8
		l-36.2-20.9c-1.7-1-3-2.6-3.5-4.5c-0.5-1.9-0.2-4,0.8-5.7l9.7-16.9c-6.2-5.3-12.1-11.2-17.4-17.4l-16.9,9.7
		c-3.6,2.1-8.2,0.8-10.2-2.8l-20.9-36.1c-1-1.7-1.3-3.8-0.8-5.7c0.5-1.9,1.8-3.6,3.5-4.5l16.8-9.7c-2.7-7.7-4.9-15.7-6.4-23.8H7.5
		c-4.1,0-7.5-3.4-7.5-7.5v-41.7c0-4.1,3.4-7.5,7.5-7.5h19.4c1.5-8.1,3.6-16,6.4-23.8l-16.8-9.7c-1.7-1-3-2.6-3.5-4.5
		c-0.5-1.9-0.2-4,0.8-5.7l20.9-36.1c2.1-3.6,6.7-4.8,10.2-2.8l16.9,9.7c5.3-6.2,11.2-12.1,17.4-17.4l-9.7-16.9
		c-1-1.7-1.3-3.8-0.8-5.7c0.5-1.9,1.8-3.6,3.5-4.6l36.2-20.9c3.6-2.1,8.2-0.9,10.2,2.7l9.7,16.8c7.7-2.8,15.7-4.9,23.8-6.4v-19.4
		c0-4.1,3.4-7.5,7.5-7.5h41.7c4.1,0,7.5,3.4,7.5,7.5v19.4c8.1,1.5,16.1,3.6,23.8,6.4l9.7-16.8c2.1-3.6,6.6-4.8,10.2-2.7l36.1,20.9
		c1.7,1,3,2.6,3.5,4.6c0.5,1.9,0.2,4-0.8,5.7l-9.7,16.9c6.2,5.3,12.1,11.1,17.4,17.4l16.9-9.7c3.6-2.1,8.2-0.8,10.2,2.8l20.9,36.1
		c1,1.7,1.3,3.8,0.8,5.7c-0.5,1.9-1.8,3.6-3.5,4.5l-16.8,9.7c2.8,7.7,4.9,15.7,6.4,23.8h19.4C357.4,303.3,360.7,306.7,360.7,310.8
		L360.7,310.8z"/>
	<path class="st1" d="M360.7,310.8v41.7c0,4.1-3.4,7.5-7.5,7.5h-19.4c-1.5,8.1-3.6,16-6.4,23.8l16.8,9.7c1.7,1,3,2.6,3.5,4.5
		c0.5,1.9,0.2,4-0.8,5.7l-20.9,36.1c-2.1,3.6-6.7,4.8-10.2,2.8l-16.9-9.7c-5.3,6.2-11.1,12.1-17.4,17.4l9.7,16.8
		c1,1.7,1.3,3.8,0.8,5.7c-0.5,1.9-1.8,3.6-3.5,4.5l-36.1,20.9c-3.6,2.1-8.2,0.8-10.2-2.8l-9.7-16.8c-7.7,2.8-15.7,4.9-23.8,6.4v19.4
		c0,4.1-3.4,7.5-7.5,7.5h-20.9v-24.5c76.8-13.5,135-78.2,135-155.9c0-77.7-58.2-142.3-135-155.9v-24.5h20.9c4.1,0,7.5,3.4,7.5,7.5
		v19.4c8.1,1.5,16.1,3.6,23.8,6.4l9.7-16.8c2.1-3.6,6.6-4.8,10.2-2.7l36.1,20.9c1.7,1,3,2.6,3.5,4.6c0.5,1.9,0.2,4-0.8,5.7
		l-9.7,16.9c6.2,5.3,12.1,11.1,17.4,17.4l16.9-9.7c3.6-2.1,8.2-0.8,10.2,2.8l20.9,36.1c1,1.7,1.3,3.8,0.8,5.7
		c-0.5,1.9-1.8,3.6-3.5,4.5l-16.8,9.7c2.8,7.7,4.9,15.7,6.4,23.8h19.4C357.4,303.3,360.7,306.7,360.7,310.8L360.7,310.8z"/>
	<path class="st2" d="M286.8,331.7c0,58.8-47.7,106.4-106.4,106.4c-3.9,0-7.7-0.2-11.5-0.6c-53.4-5.7-94.9-50.9-94.9-105.8
		c0-54.9,41.6-100.1,94.9-105.8c3.8-0.4,7.6-0.6,11.5-0.6C239.1,225.2,286.8,272.9,286.8,331.7z"/>
	<path class="st3" d="M286.8,331.7c0,58.8-47.7,106.4-106.4,106.4c-3.9,0-7.7-0.2-11.5-0.6c53.4-5.7,94.9-50.9,94.9-105.8
		c0-54.9-41.6-100.1-94.9-105.8c3.8-0.4,7.6-0.6,11.5-0.6C239.1,225.2,286.8,272.9,286.8,331.7z"/>
	<path class="st4" d="M248.3,331.7c0,37.5-30.4,67.9-67.9,67.9c-4.3,0-8.4-0.4-12.5-1.1c-31.5-5.9-55.4-33.5-55.4-66.7
		c0-33.2,23.9-60.9,55.4-66.8c4.1-0.8,8.2-1.1,12.5-1.1C217.9,263.8,248.3,294.2,248.3,331.7L248.3,331.7z"/>
	<path class="st5" d="M248.3,331.7c0,37.5-30.4,67.9-67.9,67.9c-4.3,0-8.4-0.4-12.5-1.1c31.5-5.9,55.4-33.5,55.4-66.7
		c0-33.2-23.9-60.9-55.4-66.8c4.1-0.8,8.2-1.1,12.5-1.1C217.9,263.8,248.3,294.2,248.3,331.7L248.3,331.7z"/>
	<path class="st2" d="M512,87v49c0,4.1-3.4,7.5-7.5,7.5h-13.9c-1.1,3.1-2.4,6.2-3.8,9.2l9.8,9.8c1.4,1.4,2.2,3.3,2.2,5.3
		s-0.8,3.9-2.2,5.3l-34.7,34.7c-2.9,2.9-7.7,2.9-10.6,0l-9.8-9.8c-3,1.4-6.1,2.7-9.2,3.8v13.8c0,4.1-3.4,7.5-7.5,7.5h-49.1
		c-4.1,0-7.5-3.4-7.5-7.5v-13.8c-3.1-1.1-6.2-2.4-9.2-3.8l-9.8,9.8c-2.9,2.9-7.7,2.9-10.6,0l-34.7-34.7c-1.4-1.4-2.2-3.3-2.2-5.3
		s0.8-3.9,2.2-5.3l9.8-9.8c-1.4-3-2.7-6.1-3.8-9.2h-13.9c-4.1,0-7.5-3.4-7.5-7.5V87c0-4.2,3.4-7.5,7.5-7.5h13.9
		c1.1-3.1,2.4-6.2,3.8-9.2l-9.8-9.8c-1.4-1.4-2.2-3.3-2.2-5.3s0.8-3.9,2.2-5.3l34.7-34.7c2.9-2.9,7.7-2.9,10.6,0l9.8,9.8
		c3-1.4,6.1-2.7,9.2-3.8V7.5c0-4.1,3.4-7.5,7.5-7.5h49.1c4.1,0,7.5,3.4,7.5,7.5v13.8c3.1,1.1,6.2,2.4,9.2,3.8l9.8-9.8
		c2.9-2.9,7.7-2.9,10.6,0L496.6,50c1.4,1.4,2.2,3.3,2.2,5.3s-0.8,3.9-2.2,5.3l-9.8,9.8c1.4,3,2.7,6.1,3.8,9.2h13.9
		C508.6,79.5,512,82.9,512,87z"/>
	<path class="st3" d="M512,87v49c0,4.1-3.4,7.5-7.5,7.5h-13.9c-1.1,3.1-2.4,6.2-3.8,9.2l9.8,9.8c1.4,1.4,2.2,3.3,2.2,5.3
		s-0.8,3.9-2.2,5.3l-34.7,34.7c-2.9,2.9-7.7,2.9-10.6,0l-9.8-9.8c-3,1.4-6.1,2.7-9.2,3.8v13.8c0,4.1-3.4,7.5-7.5,7.5h-24.6V206
		c44.7-5.3,79.5-45.5,79.5-94.4S445,22.4,400.2,17.1V0h24.6c4.1,0,7.5,3.4,7.5,7.5v13.8c3.1,1.1,6.2,2.4,9.2,3.8l9.8-9.8
		c2.9-2.9,7.7-2.9,10.6,0L496.6,50c1.4,1.4,2.2,3.3,2.2,5.3s-0.8,3.9-2.2,5.3l-9.8,9.8c1.4,3,2.7,6.1,3.8,9.2h13.9
		C508.6,79.5,512,82.9,512,87L512,87z"/>
	<path class="st4" d="M453.1,111.5c0,29.2-23.7,52.9-52.9,52.9c-3.3,0-6.6-0.3-9.7-0.9c-24.6-4.6-43.1-26.1-43.1-52
		s18.6-47.4,43.1-52c3.2-0.6,6.4-0.9,9.7-0.9C429.4,58.7,453.1,82.3,453.1,111.5z"/>
	<path class="st5" d="M453.1,111.5c0,29.2-23.7,52.9-52.9,52.9c-3.3,0-6.6-0.3-9.7-0.9c24.6-4.6,43.1-26.1,43.1-52
		s-18.6-47.4-43.1-52c3.2-0.6,6.4-0.9,9.7-0.9C429.4,58.7,453.1,82.3,453.1,111.5z"/>
	<g>
		<path class="st2" d="M504.5,294.5l-6.1,0c-1.3-8.9-4.7-17.3-10.2-24.5l4.3-4.3c2.9-2.9,2.9-7.7,0-10.6c-2.9-2.9-7.7-2.9-10.6,0
			l-4.3,4.3c-7.2-5.4-15.6-8.9-24.5-10.2l0-6.1c0-4.1-3.4-7.5-7.5-7.5c-4.1,0-7.5,3.4-7.5,7.5l0,6.1c-8.9,1.2-17.3,4.7-24.5,10.1
			l-4.3-4.3c-2.9-2.9-7.7-2.9-10.6,0s-2.9,7.7,0,10.6l4.3,4.3c-5.4,7.2-8.9,15.6-10.1,24.5l-6.1,0c-4.1,0-7.5,3.4-7.5,7.5
			c0,4.1,3.4,7.5,7.5,7.5l6.1,0c1.3,8.9,4.7,17.3,10.2,24.5l-4.3,4.3c-2.9,2.9-2.9,7.7,0,10.6c1.5,1.5,3.4,2.2,5.3,2.2
			s3.8-0.7,5.3-2.2l4.3-4.3c7.2,5.4,15.6,8.9,24.5,10.2l0,6.1c0,4.1,3.4,7.5,7.5,7.5c4.1,0,7.5-3.4,7.5-7.5l0-6.1
			c8.9-1.2,17.3-4.7,24.5-10.1l4.3,4.3c1.5,1.5,3.4,2.2,5.3,2.2s3.8-0.7,5.3-2.2c2.9-2.9,2.9-7.7,0-10.6l-4.3-4.3
			c5.4-7.2,8.9-15.6,10.1-24.5l6.1,0c4.1,0,7.5-3.4,7.5-7.5C512,297.8,508.6,294.5,504.5,294.5L504.5,294.5z"/>
		<path class="st3" d="M512,302c0,4.1-3.4,7.5-7.5,7.5l-6.1,0c-1.2,8.9-4.7,17.3-10.1,24.5l4.3,4.3c2.9,2.9,2.9,7.7,0,10.6
			c-1.5,1.5-3.4,2.2-5.3,2.2s-3.8-0.7-5.3-2.2l-4.3-4.3c-7.2,5.4-15.6,8.9-24.5,10.1l0,6.1c0,4.1-3.4,7.5-7.5,7.5l0-14.9
			c22.3-6.5,38.6-27.1,38.5-51.4s-16.3-44.9-38.6-51.4l0-15c4.1,0,7.5,3.4,7.5,7.5l0,6.1c8.9,1.3,17.3,4.7,24.5,10.2l4.3-4.3
			c2.9-2.9,7.7-2.9,10.6,0c2.9,2.9,2.9,7.7,0,10.6l-4.3,4.3c5.4,7.2,8.9,15.6,10.2,24.5l6.1,0C508.6,294.5,512,297.8,512,302
			L512,302z"/>
	</g>
	<path class="st4" d="M470.5,302c0,13.7-11.1,24.9-24.9,24.9c-2.8,0-5.5-0.5-8-1.3c-9.8-3.3-16.9-12.6-16.9-23.5
		c0-10.9,7.1-20.2,16.9-23.5c2.5-0.9,5.2-1.3,8-1.3C459.3,277.1,470.5,288.2,470.5,302z"/>
	<path class="st5" d="M470.5,302c0,13.7-11.1,24.9-24.9,24.9c-2.8,0-5.5-0.5-8-1.3c9.8-3.3,16.9-12.6,16.9-23.5
		c0-10.9-7.1-20.2-16.9-23.5c2.5-0.9,5.2-1.3,8-1.3C459.3,277.1,470.5,288.2,470.5,302z"/>
</g>
</svg>
