<?xml version="1.0" encoding="utf-8"?>
<!-- Generator: Adobe Illustrator 26.5.0, SVG Export Plug-In . SVG Version: 6.00 Build 0)  -->
<svg version="1.1" id="Calque_1" xmlns="http://www.w3.org/2000/svg" xmlns:xlink="http://www.w3.org/1999/xlink" x="0px" y="0px"
	 viewBox="0 0 512 512" style="enable-background:new 0 0 512 512;" xml:space="preserve">
<style type="text/css">
	.st0{fill:#607D8B;}
	.st1{fill:#4CAF50;}
</style>
<path class="st0" d="M448,512H64c-35.3,0-64-28.7-64-64v-85.3c0-11.8,9.6-21.3,21.3-21.3c11.8,0,21.3,9.6,21.3,21.3V448
	c0,11.8,9.6,21.3,21.3,21.3h384c11.8,0,21.3-9.6,21.3-21.3v-85.3c0-11.8,9.6-21.3,21.3-21.3c11.8,0,21.3,9.6,21.3,21.3V448
	C512,483.3,483.3,512,448,512z"/>
<path class="st1" d="M356.4,271.1l-85.3,85.3c-8.3,8.3-21.8,8.3-30.2,0l-85.3-85.3c-6.1-6.1-7.9-15.3-4.6-23.3
	c3.3-8,11.1-13.2,19.7-13.2h64V21.3C234.7,9.6,244.2,0,256,0s21.3,9.6,21.3,21.3v213.3h64c8.6,0,16.4,5.2,19.7,13.2
	C364.4,255.8,362.5,265,356.4,271.1z"/>
</svg>
