<?xml version="1.0" encoding="utf-8"?>
<!-- Generator: Adobe Illustrator 26.5.0, SVG Export Plug-In . SVG Version: 6.00 Build 0)  -->
<svg version="1.1" id="Calque_1" xmlns="http://www.w3.org/2000/svg" xmlns:xlink="http://www.w3.org/1999/xlink" x="0px" y="0px"
	 viewBox="0 0 469.3 469.3" style="enable-background:new 0 0 469.3 469.3;" xml:space="preserve">
<style type="text/css">
	.st0{fill:#4CAF50;}
</style>
<g>
	<path class="st0" d="M469.3,224v21.3c0,17.7-14.3,32-32,32h-160v160c0,17.7-14.3,32-32,32H224c-17.7,0-32-14.3-32-32v-160H32
		c-17.7,0-32-14.3-32-32V224c0-17.7,14.3-32,32-32h160V32c0-17.7,14.3-32,32-32h21.3c17.7,0,32,14.3,32,32v160h160
		C455,192,469.3,206.3,469.3,224z"/>
</g>
</svg>
