<?xml version="1.0" encoding="utf-8"?>
<!-- Generator: Adobe Illustrator 26.5.0, SVG Export Plug-In . SVG Version: 6.00 Build 0)  -->
<svg version="1.1" id="Calque_1" xmlns="http://www.w3.org/2000/svg" xmlns:xlink="http://www.w3.org/1999/xlink" x="0px" y="0px"
	 viewBox="0 0 512 512" style="enable-background:new 0 0 512 512;" xml:space="preserve">
<style type="text/css">
	.st0{fill:#90A4AE;}
	.st1{fill:#ECEFF1;}
	.st2{fill:#607D8B;}
</style>
<path class="st0" d="M325,0H186.3C165.7,0,149,16.7,149,37.3V80c0,8.8,7.2,16,16,16s16-7.2,16-16V37.3c0-2.9,2.4-5.3,5.3-5.3H325
	c2.9,0,5.3,2.4,5.3,5.3V80c0,8.8,7.2,16,16,16s16-7.2,16-16V37.3C362.3,16.7,345.6,0,325,0z"/>
<path class="st1" d="M431.7,160c-8.8,0-16,7.2-16,16h-320c0-8.8-7.2-16-16-16s-16,7.2-16,16v277.3c0,32.4,26.3,58.7,58.7,58.7H389
	c32.4,0,58.7-26.3,58.7-58.7V176C447.7,167.2,440.5,160,431.7,160z"/>
<g>
	<path class="st2" d="M431.7,64h-352C47.3,64,21,90.3,21,122.7V176c0,8.8,7.2,16,16,16h437.3c8.8,0,16-7.2,16-16v-53.3
		C490.3,90.3,464,64,431.7,64z"/>
	<path class="st2" d="M255.7,426.7c-8.8,0-16-7.2-16-16V272c0-8.8,7.2-16,16-16s16,7.2,16,16v138.7
		C271.7,419.5,264.5,426.7,255.7,426.7z"/>
	<path class="st2" d="M165,426.7c-8.8,0-16-7.2-16-16V272c0-8.8,7.2-16,16-16s16,7.2,16,16v138.7C181,419.5,173.8,426.7,165,426.7z"
		/>
	<path class="st2" d="M346.3,426.7c-8.8,0-16-7.2-16-16V272c0-8.8,7.2-16,16-16s16,7.2,16,16v138.7
		C362.3,419.5,355.2,426.7,346.3,426.7z"/>
</g>
</svg>
